<?xml version="1.0" encoding="UTF-8"?>
<svg id="Capa_1" xmlns="http://www.w3.org/2000/svg" version="1.1" viewBox="0 0 155.67 149.55">
  <!-- Generator: Adobe Illustrator 29.1.0, SVG Export Plug-In . SVG Version: 2.1.0 Build 142)  -->
  <defs>
    <style>
      .st0 {
        fill: #e72d55;
      }
    </style>
  </defs>
  <g id="HATCH">
    <path class="st0" d="M114.63,120.58c-3.36,8.14-11.38,11.83-20.45,10.18-7.22-1.31-12.22-7.75-12.51-16.31-.13-3.87-.02-7.74-.02-11.62-.05,0-.1,0-.15,0,0-1.55-.22-3.14.04-4.64.98-5.57-3.32-13.2,5.37-15.87,10.52-3.23,22.29.88,26.69,9.09,5.09,9.49,5.05,19.41,1.03,29.16M141.48,88.36c-4.85-5.8-12.41-9.33-19.37-14.36,14.47-5.16,20.21-15.99,20.07-30.6-.13-14.23-8.99-21.95-20.72-27.19-18.6-8.3-38.31-10.02-58.37-8.74-14.53.93-28.74,3.12-41.4,11.23C6.04,28.73,2.03,51.91,14.26,62.79c5.4,4.8,11.53,5.49,17.98,2.62,6.4-2.85,8.03-8.32,7.26-14.78-.24-2.04-.74-4.05-1.15-6.07-2.36-11.55,1.25-18.96,12.44-22.19,13.77-3.97,27.89-5.43,41.96-.81,18.29,6.01,25.03,29.44,12.74,44.3-5.31,6.42-12.73,5.5-19.42,4.33-6.31-1.1-4.31-7.32-4.52-11.67-.28-5.93.06-11.89-.11-17.83-.32-11.2-7.58-15.52-17.82-10.68-9.08,4.3-12.23,11.93-12.19,21.5.07,18.62-.14,37.23.07,55.85.08,7.28-1.46,13.42-6.53,19.12-6.83,7.67-4.63,12.86,5.56,14.74,3.29.61,6.67,1.03,10.02,1.06,17.32.15,34.65.34,51.96.04,4.81-.08,9.78-1.28,14.36-2.88,20.73-7.25,28.73-34.16,14.6-51.07Z"/>
  </g>
</svg>