<?xml version="1.0" encoding="UTF-8"?>
<svg id="Capa_1" xmlns="http://www.w3.org/2000/svg" version="1.1" viewBox="0 0 155.67 149.55">
  <!-- Generator: Adobe Illustrator 29.1.0, SVG Export Plug-In . SVG Version: 2.1.0 Build 142)  -->
  <defs>
    <style>
      .st0 {
        fill: #e72958;
      }
    </style>
  </defs>
  <path class="st0" d="M10.96,76.83c1.48-6.33,5.57-11.25,10.73-15,1.31-.95,7.23-4.65,8.49-4.84,2.79-.42,4.45,2.16,2.73,4.3-.72.89-4.91,2.81-6.25,3.67-16.28,10.51-11.71,22.41,3.37,30.55,24.42,13.18,71.23,13.21,95.62,0,15.1-8.18,19.69-20.01,3.37-30.55-1.3-.84-5.59-2.82-6.25-3.67-1.67-2.15.05-4.7,2.73-4.3.57.09,1.11.48,1.63.72,6.33,3.05,13.97,8.89,16.48,15.65l1.11,3.99v4.44c-1.08,3.42-2.23,6.37-4.57,9.15-13.72,16.31-47.06,20.56-67.15,19.86-17.86-.62-45.19-5.47-57.33-19.73-2.41-2.83-3.61-5.78-4.7-9.28v-4.96Z"/>
  <path class="st0" d="M38.23,65.08c-.5,0-.88-.44-.82-.94.85-7.81,9.71-10.16,16.51-8.19,6.11,1.77,8.56,8.97,3.61,13.35-.06.05-.12.09-.19.13l-2.23,1.14c3.1.47,5.75,3.08,6.2,6.21,2.3,16.01-24.48,16.94-24.51,1.65,0-.45.38-.8.83-.8h6.67c.46,0,.82.38.82.83-.06,5.62,8.62,5.8,8.18-.71-.21-3.06-2.41-3.71-4.96-3.77-.45-.01-.8-.38-.8-.82v-3.54c0-.45.36-.81.81-.82,2.92-.05,5.21-2.33,3.95-5.46-.73-1.8-4.04-2.19-5.54-1.23-.81.51-1.13,1.34-1.25,2-.11.58-.62,1-1.21,1h-6.07Z"/>
  <g>
    <path class="st0" d="M104.69,55.48c-15.85,1.93-14.05,39.35,5.6,33.29,12.61-3.89,12.39-35.48-5.6-33.29ZM109.57,80.22c-1.08,2.46-3.82,3.48-5.57,1.14-2.15-2.88-1.99-13.26-.75-16.61.47-1.28,1.52-2.63,2.99-2.76,1.6-.14,2.74.93,3.34,2.29,1.46,3.36,1.47,12.57,0,15.93Z"/>
    <path class="st0" d="M78.28,66.32l6.05-9.51c.24-.38-.03-.88-.48-.88h-7.39c-.2,0-.38.1-.48.27-4.62,7.57-13.23,16.89-9.5,26.37,3.63,9.23,19.78,9.02,23.24-.52,2.98-8.21-2.27-16.1-10.88-14.87-.48.07-.83-.45-.56-.86ZM82.8,78.53c-.32,3.79-4.38,5.32-7.59,3.68-3.58-1.84-2.85-8.53,1.25-9.23,4.02-.68,6.69,1.38,6.33,5.55Z"/>
    <path class="st0" d="M117.22,38.76c-9.42,1.24-8.22,16.49,2.52,15.06,9.15-1.22,7.82-16.43-2.52-15.06ZM116.64,47.83c-1.88-2.24,1.51-5.15,3.43-3.04,2.05,2.25-1.55,5.29-3.43,3.04Z"/>
  </g>
</svg>