<?xml version="1.0" encoding="UTF-8"?>
<svg id="Capa_1" xmlns="http://www.w3.org/2000/svg" version="1.1" viewBox="0 0 666.14 179.98">
  <!-- Generator: Adobe Illustrator 29.1.0, SVG Export Plug-In . SVG Version: 2.1.0 Build 142)  -->
  <defs>
    <style>
      .st0 {
        fill: #e72d55;
      }
    </style>
  </defs>
  <g id="HATCH">
    <path class="st0" d="M510.87,76.98c1.96-1.58,3.93-3.31,6.04-4.85,7.96-5.8,16.95-7.53,26.48-5.92,10.68,1.8,16.42,10.24,16.86,20.44.39,9,.18,18.03.23,27.05,0,1.48-.02,2.96.02,4.44.09,3.54,1.24,6.62,3.87,9.12,1.28,1.22,2.5,2.54,3.5,3.98,2.85,4.13,1.71,7.7-3.04,9.4-1.79.64-3.72,1.08-5.61,1.23-7.97.64-15.94,1.01-23.87-.51-1.3-.25-2.61-.59-3.81-1.14-4.33-1.99-5.18-4.99-2.53-8.9.82-1.22,1.76-2.4,2.85-3.38,3.33-2.99,4.57-6.72,4.53-11.1-.08-7.24.11-14.49-.07-21.73-.06-2.3-.63-4.7-1.51-6.83-2.71-6.51-9.37-8.53-15.37-4.73-5.37,3.4-8.3,8.54-8.69,14.71-.46,7.22-.32,14.48-.15,21.72.07,2.98,1.42,5.64,3.82,7.7,1.44,1.24,2.74,2.72,3.82,4.29,1.98,2.87,1.48,5.76-1.48,7.64-1.57.99-3.5,1.61-5.35,1.93-8.07,1.41-16.22.93-24.33.43-2.28-.14-4.57-1.16-6.74-2.07-3.11-1.31-4.14-3.9-2.58-6.87,1.01-1.92,2.45-3.73,4.03-5.23,2.99-2.85,4.29-6.21,4.27-10.29-.06-8.43-.1-16.86.13-25.28.11-4.11-.92-7.54-3.83-10.44-1.25-1.25-2.46-2.56-3.55-3.96-3.04-3.92-2.3-7.08,2.17-9.34.92-.46,1.89-.9,2.89-1.11,5.53-1.16,11.08-1.6,16.73-.84,4.88.65,7.64,3.45,9.01,7.95.21.7.43,1.4.67,2.09.04.11.22.16.59.41Z"/>
  </g>
  <g id="HATCH1" data-name="HATCH">
    <path class="st0" d="M373.96,131.17c-1.02.9-1.87,1.69-2.75,2.44-7.97,6.76-17.17,9.86-27.55,8.56-10.91-1.37-18.17-8.26-19.08-19.9-.45-5.73-.21-11.52-.27-17.28-.06-5.76.13-11.55-.28-17.28-.15-2.02-1.54-4.08-2.73-5.87-1.38-2.08-3.31-3.79-4.74-5.85-2.53-3.61-1.74-6.92,2.29-8.69,2.53-1.11,5.34-1.84,8.09-2.16,3.21-.38,6.5-.28,9.75-.14,7.83.34,11.97,4.48,12.14,12.3.15,6.95-.04,13.9.07,20.85.09,5.76.23,11.53.66,17.27.33,4.43,2.56,8.11,6.83,9.56,4.73,1.61,9.04.19,12.39-3.68,3.41-3.94,5.3-8.56,5.49-13.73.22-5.91.08-11.83.16-17.75.04-3.31-1.32-6-3.43-8.41-1.17-1.33-2.43-2.6-3.49-4.01-3.66-4.89-2.69-8.75,3.02-10.6,3.32-1.08,6.91-1.41,10.4-1.8,2.19-.25,4.44-.08,6.65.08,7.15.52,10.96,3.99,11.37,11.12.41,7.23.24,14.49.27,21.73.03,5.91,0,11.83-.02,17.74-.02,4.35,1.22,8.1,4.61,11.07,1.32,1.15,2.47,2.58,3.38,4.08,2.16,3.56,1.3,6.73-2.52,8.37-2.54,1.09-5.35,1.76-8.1,2.11-3.06.39-6.2.33-9.31.26-6.89-.16-9.78-2.28-12.26-8.72-.2-.52-.6-.97-1.04-1.66Z"/>
  </g>
  <g id="HATCH2" data-name="HATCH">
    <path class="st0" d="M114.63,120.58c-3.36,8.14-11.38,11.83-20.45,10.18-7.22-1.31-12.22-7.75-12.51-16.31-.13-3.87-.02-7.74-.02-11.62-.05,0-.1,0-.15,0,0-1.55-.22-3.14.04-4.64.98-5.57-3.32-13.2,5.37-15.87,10.52-3.23,22.29.88,26.69,9.09,5.09,9.49,5.05,19.41,1.03,29.16M141.48,88.36c-4.85-5.8-12.41-9.33-19.37-14.36,14.47-5.16,20.21-15.99,20.07-30.6-.13-14.23-8.99-21.95-20.72-27.19-18.6-8.3-38.31-10.02-58.37-8.74-14.53.93-28.74,3.12-41.4,11.23C6.04,28.73,2.03,51.91,14.26,62.79c5.4,4.8,11.53,5.49,17.98,2.62,6.4-2.85,8.03-8.32,7.26-14.78-.24-2.04-.74-4.05-1.15-6.07-2.36-11.55,1.25-18.96,12.44-22.19,13.77-3.97,27.89-5.43,41.96-.81,18.29,6.01,25.03,29.44,12.74,44.3-5.31,6.42-12.73,5.5-19.42,4.33-6.31-1.1-4.31-7.32-4.52-11.67-.28-5.93.06-11.89-.11-17.83-.32-11.2-7.58-15.52-17.82-10.68-9.08,4.3-12.23,11.93-12.19,21.5.07,18.62-.14,37.23.07,55.85.08,7.28-1.46,13.42-6.53,19.12-6.83,7.67-4.63,12.86,5.56,14.74,3.29.61,6.67,1.03,10.02,1.06,17.32.15,34.65.34,51.96.04,4.81-.08,9.78-1.28,14.36-2.88,20.73-7.25,28.73-34.16,14.6-51.07Z"/>
  </g>
  <g id="HATCH3" data-name="HATCH">
    <path class="st0" d="M195.26,99.11c0,5.77.16,11.54-.05,17.31-.15,4.16,1.38,7.42,4.09,10.4,1.57,1.73,3.16,3.57,4.22,5.62,1.54,2.95.87,5.06-1.88,6.86-1.33.87-2.9,1.55-4.45,1.84-9.54,1.79-19.11,1.77-28.67-.01-.58-.11-1.17-.22-1.72-.42-5.73-2-6.96-6.28-3.13-10.96.94-1.14,1.99-2.19,2.98-3.29,2.57-2.86,3.91-6.12,3.86-10.07-.1-8.14-.06-16.27.06-24.41.06-4.04-.91-7.57-3.81-10.52-1.35-1.37-2.6-2.84-3.77-4.36-2.77-3.63-1.73-7.57,2.45-9.39,6.78-2.96,13.93-2.66,20.98-1.83,4.69.55,7.79,4.5,8.25,9.74.41,4.71.42,9.45.53,14.18.07,3.1.01,6.21.01,9.32.01,0,.03,0,.04,0Z"/>
  </g>
  <g id="HATCH4" data-name="HATCH">
    <path class="st0" d="M181.23,61.07c-7.1-.05-13.71-6.78-13.53-13.78.2-8.09,6.31-14.14,14.13-13.99,7.98.15,13.81,6.27,13.7,14.37-.1,7.38-6.58,13.46-14.3,13.41Z"/>
  </g>
  <g id="HATCH5" data-name="HATCH">
    <path class="st0" d="M455.03,99.11c0,5.77.16,11.54-.05,17.31-.15,4.16,1.38,7.42,4.09,10.4,1.57,1.73,3.16,3.57,4.22,5.62,1.54,2.95.87,5.06-1.88,6.86-1.33.87-2.9,1.55-4.45,1.84-9.54,1.79-19.11,1.77-28.67-.01-.58-.11-1.17-.22-1.72-.42-5.73-2-6.96-6.28-3.13-10.96.94-1.14,1.99-2.19,2.98-3.29,2.57-2.86,3.91-6.12,3.86-10.07-.1-8.14-.06-16.27.06-24.41.06-4.04-.91-7.57-3.81-10.52-1.35-1.37-2.6-2.84-3.77-4.36-2.77-3.63-1.73-7.57,2.45-9.39,6.78-2.96,13.93-2.66,20.98-1.83,4.69.55,7.79,4.5,8.25,9.74.41,4.71.42,9.45.53,14.18.07,3.1.01,6.21.01,9.32.01,0,.03,0,.04,0Z"/>
  </g>
  <g id="HATCH6" data-name="HATCH">
    <path class="st0" d="M633.81,103.17c-.28-3.47-.27-7.51-1.03-11.4-.75-3.87-1.83-7.81-3.56-11.34-3.09-6.32-10.3-7.31-15.02-2.11-1.8,1.99-3.05,4.7-3.91,7.3-3.18,9.61-2.54,19.57-1.79,29.43.31,4.07,1.54,8.09,3.76,11.73,1.61,2.63,3.78,4.02,6.79,4.32,4.57.46,8.16-1.52,10.46-5.89,3.55-6.76,3.88-14.14,4.29-22.04M658.99,101.08c.4,14.09-4.05,24.9-14.31,33.01-14.09,11.13-39.48,12.88-54.79-5.36-4.03-4.8-6.04-10.81-6.99-17.03-1.58-10.38-.29-20.28,5.12-29.5,5.93-10.12,14.82-15.93,26.23-17.69,15.13-2.33,27.84,2.52,37.25,14.58,5.17,6.63,8.01,14.45,7.49,21.98Z"/>
  </g>
  <g id="HATCH7" data-name="HATCH">
    <path class="st0" d="M242.97,104.52c.17,5.67.71,11.1,3.43,16.03,4.19,7.6,12.83,7.92,17.55.66,1.94-2.99,3.38-6.19,3.98-9.78.95-5.63.83-11.23-.67-16.69-.77-2.79-1.98-5.59-3.57-8.01-3.95-6.01-13.09-7.69-17.4,1.14-2.62,5.36-2.94,11.06-3.31,16.65M268.29,132.52c-1.73,1.6-2.84,2.52-3.84,3.55-9.79,10.1-26.53,9.38-36.12-.87-4.33-4.63-7.17-10.08-8.79-16.19-3.29-12.33-3.35-24.64,1.4-36.55,3.45-8.65,9.57-14.9,19.11-16.89,11.38-2.36,20.62,1.2,28.08,10.75.38-1.09.69-1.95.98-2.81,1.43-4.14,4.33-6.67,8.59-7.46,6.83-1.26,13.58-.66,20.09,1.69,4.35,1.57,5.51,5.41,2.96,9.28-1.04,1.58-2.41,2.98-3.75,4.34-2.74,2.76-4.12,5.93-4.1,9.91.09,18.92.08,37.83,0,56.75-.02,3.89,1.88,6.73,4.16,9.49,1.22,1.48,2.65,2.8,3.73,4.37,2.51,3.64,1.83,6.83-2.2,8.78-2.34,1.14-5.06,1.93-7.64,2.03-6.92.28-13.87.24-20.8.02-2.29-.07-4.66-.85-6.81-1.75-4.5-1.89-5.4-5.32-2.58-9.21,1.21-1.67,2.63-3.2,3.98-4.76,2.5-2.9,3.97-6.1,3.76-10.09-.24-4.52-.14-9.05-.2-14.39Z"/>
  </g>
  <g id="HATCH8" data-name="HATCH">
    <path class="st0" d="M567.13,30.51c-.23-1.42-1.62-3.13-3.32-3.71-1.02-.35-4.25.94-5.51,1.99-3.5,2.94-7.76,4.08-12.86,4.87-24.05,3.73-46.91,1.21-69.88-.85-.03,0-.05-.02-.08-.02-4.76-.41-9.52-.85-14.33-1.12-5.49-.31-12.83-.03-17.98,1.91-6.27,2.37-11.53,6.59-11.71,13.83-.17,7.01,6.43,13.73,13.53,13.78,7.71.06,14.2-6.02,14.3-13.41,0-.15,0-.32-.01-.48-.19-3.47,2.43-6.46,5.9-6.5.55,0,1.04.02,1.41.11,11.47,2.74,22.88,5.58,34.53,8.03,16.04,3.37,32.49,4.95,49.79-.7,10.15-3.31,17.34-10.83,16.21-17.73Z"/>
  </g>
</svg>