<?xml version="1.0" encoding="UTF-8"?>
<svg id="Capa_1" xmlns="http://www.w3.org/2000/svg" version="1.1" viewBox="0 0 155.67 149.55">
  <!-- Generator: Adobe Illustrator 29.1.0, SVG Export Plug-In . SVG Version: 2.1.0 Build 142)  -->
  <defs>
    <style>
      .st0 {
        fill: #e72958;
        stroke: #e72958;
        stroke-miterlimit: 10;
        stroke-width: 2px;
      }
    </style>
  </defs>
  <path class="st0" d="M117.26,34.15c4.53,3.95,7.96,9.48,9.37,15.35,2.3,9.62-.3,19.91-7.05,27.12,4.62,6.22-1.06,14.81-8.6,13.03,1.01,4.14-1.39,8.53-5.44,9.84-1.53.5-2.96.51-4.53.24.31,2.25.14,4.25-1.03,6.21-2.8,4.72-9.61,5.38-13.23,1.24l-.64-.48c.05,1.89-.68,3.73-1.83,5.2-2.81,2.61-5.39,5.68-8.18,8.28-3.3,3.08-8.16,3.27-11.55.2-2.21-2.01-2.98-5.09-2.47-7.99-6,1.32-11.41-4.06-9.97-10.08-3.53.86-7.26-.71-9.09-3.83-1.13-1.93-1.35-3.95-.99-6.14-2.23.31-4.18.16-6.14-.99-4.33-2.52-5.34-8.38-2.26-12.3.3-.39,2.39-2.33,2.38-2.53-1.86-2.11-3.55-4.44-4.78-6.98-7.12-14.72-1.01-32.51,13.64-39.63,10.81-5.25,24.15-3.31,32.95,4.84,2.25-1.9,4.64-3.62,7.31-4.89,10.52-5.04,23.37-3.36,32.15,4.3ZM77.36,58.72c-4.12,3.6-9.39,4.94-14.73,3.4-3.61-1.04-7.37-3.3-4.63-7.48l18.12-18.13c-2.82-2.65-6.3-4.69-9.99-5.87-21.26-6.83-41.11,13.45-34.08,34.62,1.17,3.53,3.2,6.89,5.74,9.59l4.66-4.66c6.21-5.02,15.14.56,13.41,8.31,5.99-1.39,11.48,4.08,9.97,10.08,5.99-1.51,11.49,3.98,10.08,9.97,1.79-.38,3.48-.24,5.17.46,2.79,1.15,5.31,4.82,7.64,6.83,5.96,5.14,13.42-2.5,8.42-8.32-.13-.15-.37-.36-.53-.54-6.73-7.24-14.35-13.95-21.2-21.11-.23-.42-.69-.61-.77-1.12-.16-1.1,1.03-1.82,1.91-1.16,7.65,7.57,15.14,15.34,22.91,22.77,6.16,4.11,12.66-3.92,7.43-9.15l-22.08-22.1c-.61-1.39.9-2.36,1.99-1.4,7.56,7.6,15.05,15.31,22.8,22.72,4.16,2.72,9.51-.35,9.2-5.34-.19-3-2.96-4.86-4.88-6.81-7.13-7.21-14.25-14.37-21.45-21.45-1.93-1.9-3.52-4.46-6.63-2.55-2.93,2.62-5.54,5.83-8.48,8.41ZM113.93,34.58c-10.56-7.69-25.21-6.8-34.69,2.17-6.63,6.27-12.74,13.16-19.37,19.44-1.18,1.53.39,2.41,1.64,2.98,3.04,1.38,6.58,1.52,9.73.46,4.99-1.67,8.7-7.5,12.65-10.84,2.31-1.96,5.49-2.05,7.83-.11l26.16,26.17c6-6.39,8.38-15.45,6.56-24.04-1.36-6.43-5.23-12.38-10.52-16.24ZM50.42,82.18c.44-.46,1.03-.87,1.47-1.38,5.26-6.02-2.41-13.49-8.21-8.52-2.63,2.25-4.96,5.32-7.61,7.61-1.96,2.16-2.29,4.33-1.31,7.06,2.3,3.43,6.2,4.27,9.46,1.52,2.06-1.74,4.29-4.31,6.2-6.29ZM46.81,89.29c-.25.27-.65.52-.93.84-5.02,5.75,2.47,13.42,8.37,8.37,2.79-2.39,5.28-5.58,8.04-8.05,4.01-4.98-1.3-11.84-7.04-9.19-1.99.92-6.69,6.18-8.44,8.02ZM56.25,99.91c-5.65,6.32,2.3,13.49,7.97,8.67,2.27-1.93,5.61-5.36,7.62-7.61,5.23-5.89-1.68-13.27-7.83-8.91-2.49,2.68-5.32,5.13-7.76,7.85ZM81.41,111.35c.17-.18.46-.33.66-.57,5.08-5.87-2.49-13.47-8.42-8.31-2.28,1.98-5.5,5.23-7.51,7.51-5.38,6.09,2.26,13.7,8.26,8.48,2.31-2.02,4.89-4.82,7.01-7.1Z"/>
</svg>