<?xml version="1.0" encoding="UTF-8"?>
<svg id="Capa_1" xmlns="http://www.w3.org/2000/svg" version="1.1" viewBox="0 0 155.67 149.55">
  <!-- Generator: Adobe Illustrator 29.1.0, SVG Export Plug-In . SVG Version: 2.1.0 Build 142)  -->
  <defs>
    <style>
      .st0 {
        fill: #e72958;
      }
    </style>
  </defs>
  <path class="st0" d="M104.77,49.05c-.5-3.72-3.23-5.85-6.84-6.16-16.26-1.4-34.5,1.07-50.97.01-3.27-.41-4.97,4.6-7.65,3.8-4.46-1.33,3.59-8.59,6.29-7.97l53.04-.05c5.81.5,10.16,5.04,10,10.91,6.76.44,14.25-.59,20.92-.01,3.24.28,5.29,1.56,7.12,4.12,2.09,2.94,11.01,17.73,11.51,20.47.76,4.16.56,17.12.17,21.64-.48,5.65-4.81,8.01-10.15,7.6-3.37,8.4-13.21,10.14-19.21,3.11-.74-.87-1.58-3-2.45-3.17l-40.6.17c-4.53,9.74-17.18,9.91-21.3-.19-4.47-.15-9.04.85-13.03-1.67-1.49-.94-3.4-3.21-1.36-4.66s2.94.94,4.51,1.51c2.91,1.06,6.02-.07,9.04.27.5-16.14,22.42-16.13,22.84,0h28.11v-49.73ZM144.13,76.28c.22-1.47-.6-2.63-1.22-3.87-1.66-3.34-4.25-7.38-6.23-10.64-.93-1.54-4.09-7.63-5.73-7.63h-22.32v44.46c.26.36.31.38.72.38,2.23,0,4.72-.43,7.02-.2.44-16.13,22.18-16.15,22.88-.04,1.39.87,4.89-.79,4.89-2.25v-15.64h-20.91c-.73,0-1.79-1.52-1.91-2.31-.44-2.84-.39-13.9.01-16.82.54-3.9,4.19-1.97,4.19-1.09v15.64h18.63ZM70.56,104.27c6.45-6.95-3.11-18.22-10.39-11.27-7.15,6.83,3.39,18.8,10.39,11.27ZM132.76,92.92c-6.33-6.29-16.17,2.87-10.92,10.4,6.39,9.17,18.64-2.73,10.92-10.4Z"/>
  <path class="st0" d="M56.17,76.04c1.94,1.57.61,3.85-1.82,4.12-9.5,1.05-20.89-.81-30.59,0-3.27-.04-3.73-4.19-.35-4.58,10.01.65,21.06-.85,30.95,0,.65.06,1.27.03,1.82.47Z"/>
  <path class="st0" d="M27.72,63.38c2.67-.53,15.28-.47,18.14-.07,3.19.45,3.28,4.17.04,4.54s-15.15.48-18.26-.03c-.64-.1-1.17-.38-1.63-.83-.83-1.81-.29-3.22,1.7-3.61Z"/>
  <path class="st0" d="M34.92,55.11c-1.18-1.19-.7-3.54,1.49-3.79,6.19-.71,13.7.54,20.03.01,2.04.39,2.27,3.87-.69,4.22-4.4.51-14.47.39-19,0-.54-.05-1.45-.06-1.83-.45Z"/>
  <path class="st0" d="M26.65,87.95l20.29-.05c2.47.39,2.58,3.41.37,4.19h-20.73c-1.68-.3-1.71-3.63.07-4.14Z"/>
  <path class="st0" d="M21.21,51.76c.57-.57,7.17-.65,8.11-.37,1.66.5,1.81,3.57-.36,4.07-1.11.26-6.51.24-7.33-.25-1.03-.62-1.19-2.69-.42-3.45Z"/>
  <path class="st0" d="M8.73,75.65c1.33-.29,5.16-.39,5.65,1.22,1.03,3.38-2.57,3.59-4.99,3.24-3.05-.45-3.15-3.91-.66-4.46Z"/>
</svg>