<?xml version="1.0" encoding="UTF-8"?>
<svg id="Capa_1" xmlns="http://www.w3.org/2000/svg" version="1.1" viewBox="0 0 155.67 149.55">
  <!-- Generator: Adobe Illustrator 29.1.0, SVG Export Plug-In . SVG Version: 2.1.0 Build 142)  -->
  <defs>
    <style>
      .st0 {
        fill: #e72958;
      }
    </style>
  </defs>
  <path class="st0" d="M98.14,19.53v9.92c7.63.54,15.01,2.47,21.81,5.94.43-.03,5.09-5.34,6.13-6.04.95-.64,1.87-.78,3-.49l19.03,19.05c.52.98.32,1.88-.19,2.81-.72,1.29-5.8,5.56-5.9,6.11,2.59,4.82,4.63,10.11,5.68,15.5,7.32,37.68-25.9,70.35-63.44,62.52-13.01-2.72-23.72-10.24-31.97-20.42l-18.29-.17c-1.69-.87-2.21-2.87-.94-4.38.21-.25,1.3-1.04,1.5-1.04h14.19l-3.72-8.74-21.03-.08c-1.97-.55-2.96-2.86-1.66-4.56.17-.22,1.23-.93,1.38-.93h19.39c.23-.17.26-.2.26-.47-.01-1.05-.63-3.08-.8-4.29-.18-1.27-.27-2.57-.3-3.86l-.35-.35-32.28-.03c-3.42-.39-3.59-5.14-.24-5.54l32.51-.03.35-.35c.05-2.91.59-5.79,1.19-8.62h-19.5c-.4,0-1.49-.9-1.73-1.27-1.09-1.69-.15-3.48,1.55-4.22l21.27-.08,3.72-8.97h-14.65c-.61,0-1.69-1.7-1.75-2.43-.14-1.97,1.33-2.96,3.12-3.12,5.44-.48,11.53.42,17.04-.04.41-.12,3.13-3.69,3.74-4.34,9.41-10.13,22.49-16.24,36.35-17.07v-9.92h-12.12c-1.06,0-2.36-1.24-2.56-2.3-.43-2.28,1.21-3.33,3.24-3.48,9.42-.7,19.75.5,29.26.07,2.24.38,3.28,2.92,1.79,4.68-.29.34-1.38,1.04-1.73,1.04h-12.35ZM93.24,35.06c-16.04.8-30.62,9.55-38.82,23.26-2.56,4.29-3.71,8.16-5.28,12.72-3.53,10.26-.53,25.56,4.57,34.81,17.55,31.87,63.34,32.77,82.37,1.82,19.95-32.43-4.96-74.49-42.84-72.61ZM125.14,38.68c5.44,3.23,9.93,8.14,13.73,13.15.5-.74,2.21-1.87,2.55-2.54.44-.86-12.23-12.17-13.4-13.84-.37.5-3.16,2.82-2.88,3.22Z"/>
  <path class="st0" d="M124.76,113.09c-23.53,22.87-63.43,11.02-70.59-20.86-7.68-34.16,26.87-62.52,58.82-47.97,27.06,12.32,33.12,48.08,11.77,68.83ZM92.32,46.14c-26.39,1.97-41.85,31.29-28.98,54.46,13.77,24.82,49.96,25.07,63.92.32,14.59-25.87-5.51-56.98-34.93-54.78Z"/>
  <path class="st0" d="M79.75,75.3c-1.9-2.58.39-5.6,3.38-4.42l10.26,9.59.68.22,25.7-10.34c3.65-.33,4.93,3.81,1.53,5.46-8.81,3.05-17.53,7.67-26.34,10.58-1.8.6-2.23.83-3.86-.41-3.91-2.97-7.4-7.63-11.35-10.69Z"/>
</svg>